# xmcd CD database file
#
# Track frame offsets:
#	150
#	19711
#	40297
#	57967
#	74317
#	95311
#	110485
#	132076
#	149054
#	165759
#	186971
#	207134
#
# Disc length: 3156 seconds
#
# Revision: 0
# Processed by: cddbd v1.5.1PL0 Copyright (c) Steve Scherf et al.
# Submitted via: CDex 1.51
#
DISCID=a40c520c
DTITLE=Base Ball Bear - HIGH COLOR TIMES
DYEAR=2005
DGENRE=Rock
TTITLE0=極彩色イマジネイション
TTITLE1=April Mirage
TTITLE2=空飛願望
TTITLE3=向日葵の12月
TTITLE4=白雪の彼女
TTITLE5=海になりたい
TTITLE6=aimai memories
TTITLE7=サテライト・タウンにて
TTITLE8=君色の街
TTITLE9=翳ない2人
TTITLE10=彼氏彼女の関係
TTITLE11=HIGH COLOR TIMES
EXTD=YEAR: 2005
EXTT0=
EXTT1=
EXTT2=
EXTT3=
EXTT4=
EXTT5=
EXTT6=
EXTT7=
EXTT8=
EXTT9=
EXTT10=
EXTT11=
PLAYORDER=
